<svg width="800" height="110" viewBox="0 0 800 110" fill="none" xmlns="http://www.w3.org/2000/svg">
<rect width="800" height="110" rx="2" fill="#112131"/>
<path d="M20.888 22.184V31.92C20.888 32.336 21.016 32.632 21.272 32.808C21.5333 32.9787 21.8693 33.064 22.28 33.064C22.536 33.064 22.7787 33.0373 23.008 32.984C23.2373 32.9307 23.4667 32.8587 23.696 32.768L24.056 33.752C23.8267 33.864 23.5413 33.9627 23.2 34.048C22.864 34.1387 22.4827 34.184 22.056 34.184C21.3093 34.184 20.704 33.9787 20.24 33.568C19.776 33.152 19.544 32.5787 19.544 31.848V23.248H16.96V22.184H20.888ZM28.2578 30.264C28.2844 30.9147 28.4098 31.448 28.6338 31.864C28.8578 32.2747 29.1538 32.5787 29.5218 32.776C29.8898 32.968 30.2898 33.064 30.7218 33.064C31.1538 33.064 31.5431 33 31.8898 32.872C32.2418 32.744 32.6018 32.5547 32.9698 32.304L33.6018 33.192C33.2071 33.5013 32.7564 33.744 32.2498 33.92C31.7484 34.096 31.2338 34.184 30.7058 34.184C29.8898 34.184 29.1938 34 28.6178 33.632C28.0418 33.264 27.6018 32.752 27.2978 32.096C26.9991 31.4347 26.8498 30.6693 26.8498 29.8C26.8498 28.9467 27.0018 28.1893 27.3058 27.528C27.6098 26.8667 28.0364 26.3467 28.5858 25.968C29.1351 25.5893 29.7831 25.4 30.5298 25.4C31.2391 25.4 31.8498 25.568 32.3618 25.904C32.8738 26.2347 33.2658 26.7093 33.5378 27.328C33.8151 27.9413 33.9538 28.6747 33.9538 29.528C33.9538 29.672 33.9511 29.808 33.9458 29.936C33.9404 30.0587 33.9324 30.168 33.9218 30.264H28.2578ZM30.5458 26.504C29.9218 26.504 29.3991 26.7253 28.9778 27.168C28.5618 27.6107 28.3244 28.296 28.2658 29.224H32.6578C32.6418 28.3227 32.4444 27.6453 32.0658 27.192C31.6871 26.7333 31.1804 26.504 30.5458 26.504ZM43.4835 33.576C43.1955 33.768 42.8462 33.9173 42.4355 34.024C42.0248 34.1307 41.6222 34.184 41.2275 34.184C40.3208 34.184 39.6222 33.9467 39.1315 33.472C38.6408 32.9973 38.3955 32.3867 38.3955 31.64V26.616H36.4595V25.576H38.3955V23.664L39.7395 23.504V25.576H42.6515L42.4915 26.616H39.7395V31.624C39.7395 32.0933 39.8622 32.4507 40.1075 32.696C40.3582 32.9413 40.7715 33.064 41.3475 33.064C41.6622 33.064 41.9528 33.0267 42.2195 32.952C42.4862 32.8773 42.7342 32.7813 42.9635 32.664L43.4835 33.576Z" fill="#80ABD6"/>
<path d="M135.909 31.352C136.282 31.352 136.592 31.48 136.837 31.736C137.088 31.9867 137.213 32.2853 137.213 32.632C137.213 32.8293 137.189 33.0267 137.141 33.224C137.098 33.4213 137.016 33.648 136.893 33.904L135.597 36.88H134.381L135.149 33.704C134.797 33.4587 134.621 33.104 134.621 32.64C134.621 32.2827 134.744 31.9787 134.989 31.728C135.24 31.4773 135.546 31.352 135.909 31.352ZM135.909 25.824C136.282 25.824 136.592 25.9493 136.837 26.2C137.088 26.4507 137.213 26.7547 137.213 27.112C137.213 27.464 137.088 27.7707 136.837 28.032C136.592 28.288 136.282 28.416 135.909 28.416C135.546 28.416 135.24 28.288 134.989 28.032C134.744 27.7707 134.621 27.464 134.621 27.112C134.621 26.8667 134.677 26.648 134.789 26.456C134.901 26.264 135.056 26.112 135.253 26C135.45 25.8827 135.669 25.824 135.909 25.824ZM126.315 57.352C126.689 57.352 126.998 57.48 127.243 57.736C127.494 57.9867 127.619 58.2853 127.619 58.632C127.619 58.8293 127.595 59.0267 127.547 59.224C127.505 59.4213 127.422 59.648 127.299 59.904L126.003 62.88H124.787L125.555 59.704C125.203 59.4587 125.027 59.104 125.027 58.64C125.027 58.2827 125.15 57.9787 125.395 57.728C125.646 57.4773 125.953 57.352 126.315 57.352ZM126.315 51.824C126.689 51.824 126.998 51.9493 127.243 52.2C127.494 52.4507 127.619 52.7547 127.619 53.112C127.619 53.464 127.494 53.7707 127.243 54.032C126.998 54.288 126.689 54.416 126.315 54.416C125.953 54.416 125.646 54.288 125.395 54.032C125.15 53.7707 125.027 53.464 125.027 53.112C125.027 52.8667 125.083 52.648 125.195 52.456C125.307 52.264 125.462 52.112 125.659 52C125.857 51.8827 126.075 51.824 126.315 51.824ZM116.722 83.352C117.095 83.352 117.404 83.48 117.65 83.736C117.9 83.9867 118.026 84.2853 118.026 84.632C118.026 84.8293 118.002 85.0267 117.954 85.224C117.911 85.4213 117.828 85.648 117.706 85.904L116.41 88.88H115.194L115.962 85.704C115.61 85.4587 115.434 85.104 115.434 84.64C115.434 84.2827 115.556 83.9787 115.802 83.728C116.052 83.4773 116.359 83.352 116.722 83.352ZM116.722 77.824C117.095 77.824 117.404 77.9493 117.65 78.2C117.9 78.4507 118.026 78.7547 118.026 79.112C118.026 79.464 117.9 79.7707 117.65 80.032C117.404 80.288 117.095 80.416 116.722 80.416C116.359 80.416 116.052 80.288 115.802 80.032C115.556 79.7707 115.434 79.464 115.434 79.112C115.434 78.8667 115.49 78.648 115.602 78.456C115.714 78.264 115.868 78.112 116.066 78C116.263 77.8827 116.482 77.824 116.722 77.824Z" fill="#AFC2D4"/>
<path d="M60.959 22.016C61.4123 22.016 61.823 22.056 62.191 22.136C62.559 22.216 62.9083 22.328 63.239 22.472L62.807 23.472C62.535 23.3547 62.247 23.2667 61.943 23.208C61.639 23.1493 61.3243 23.12 60.999 23.12C60.4123 23.12 59.9697 23.2347 59.671 23.464C59.3777 23.6933 59.231 24.0453 59.231 24.52V26.232H62.087L61.943 27.288H59.231V34H57.887V27.288H55.879V26.232H57.887V24.552C57.887 24.0293 58.0203 23.5787 58.287 23.2C58.559 22.8213 58.927 22.5307 59.391 22.328C59.855 22.12 60.3777 22.016 60.959 22.016ZM68.7848 25.4C69.5794 25.4 70.2434 25.5813 70.7768 25.944C71.3154 26.3013 71.7181 26.808 71.9848 27.464C72.2568 28.12 72.3928 28.8933 72.3928 29.784C72.3928 30.6427 72.2541 31.4027 71.9768 32.064C71.6994 32.7253 71.2914 33.2453 70.7528 33.624C70.2194 33.9973 69.5581 34.184 68.7688 34.184C67.9794 34.184 67.3154 34.0027 66.7768 33.64C66.2381 33.2773 65.8301 32.768 65.5528 32.112C65.2808 31.4507 65.1447 30.68 65.1447 29.8C65.1447 28.9307 65.2834 28.1653 65.5608 27.504C65.8381 26.8427 66.2461 26.328 66.7848 25.96C67.3288 25.5867 67.9954 25.4 68.7848 25.4ZM68.7848 26.496C68.0594 26.496 67.5101 26.7653 67.1368 27.304C66.7688 27.8373 66.5848 28.6693 66.5848 29.8C66.5848 30.9093 66.7661 31.7333 67.1288 32.272C67.4968 32.8107 68.0434 33.08 68.7688 33.08C69.4941 33.08 70.0381 32.8107 70.4008 32.272C70.7688 31.7333 70.9528 30.904 70.9528 29.784C70.9528 28.664 70.7714 27.8373 70.4088 27.304C70.0461 26.7653 69.5048 26.496 68.7848 26.496ZM78.3785 25.4C79.1732 25.4 79.8372 25.5813 80.3705 25.944C80.9092 26.3013 81.3118 26.808 81.5785 27.464C81.8505 28.12 81.9865 28.8933 81.9865 29.784C81.9865 30.6427 81.8478 31.4027 81.5705 32.064C81.2932 32.7253 80.8852 33.2453 80.3465 33.624C79.8132 33.9973 79.1518 34.184 78.3625 34.184C77.5732 34.184 76.9092 34.0027 76.3705 33.64C75.8318 33.2773 75.4238 32.768 75.1465 32.112C74.8745 31.4507 74.7385 30.68 74.7385 29.8C74.7385 28.9307 74.8772 28.1653 75.1545 27.504C75.4318 26.8427 75.8398 26.328 76.3785 25.96C76.9225 25.5867 77.5892 25.4 78.3785 25.4ZM78.3785 26.496C77.6532 26.496 77.1038 26.7653 76.7305 27.304C76.3625 27.8373 76.1785 28.6693 76.1785 29.8C76.1785 30.9093 76.3598 31.7333 76.7225 32.272C77.0905 32.8107 77.6372 33.08 78.3625 33.08C79.0878 33.08 79.6318 32.8107 79.9945 32.272C80.3625 31.7333 80.5465 30.904 80.5465 29.784C80.5465 28.664 80.3652 27.8373 80.0025 27.304C79.6398 26.7653 79.0985 26.496 78.3785 26.496ZM100.662 26.928V28.088H94.438V26.928H100.662ZM100.662 29.96V31.128H94.438V29.96H100.662ZM22.584 48.016C23.0373 48.016 23.448 48.056 23.816 48.136C24.184 48.216 24.5333 48.328 24.864 48.472L24.432 49.472C24.16 49.3547 23.872 49.2667 23.568 49.208C23.264 49.1493 22.9493 49.12 22.624 49.12C22.0373 49.12 21.5947 49.2347 21.296 49.464C21.0027 49.6933 20.856 50.0453 20.856 50.52V52.232H23.712L23.568 53.288H20.856V60H19.512V53.288H17.504V52.232H19.512V50.552C19.512 50.0293 19.6453 49.5787 19.912 49.2C20.184 48.8213 20.552 48.5307 21.016 48.328C21.48 48.12 22.0027 48.016 22.584 48.016ZM30.4098 51.4C31.2044 51.4 31.8684 51.5813 32.4018 51.944C32.9404 52.3013 33.3431 52.808 33.6098 53.464C33.8818 54.12 34.0178 54.8933 34.0178 55.784C34.0178 56.6427 33.8791 57.4027 33.6018 58.064C33.3244 58.7253 32.9164 59.2453 32.3778 59.624C31.8444 59.9973 31.1831 60.184 30.3938 60.184C29.6044 60.184 28.9404 60.0027 28.4018 59.64C27.8631 59.2773 27.4551 58.768 27.1778 58.112C26.9058 57.4507 26.7697 56.68 26.7697 55.8C26.7697 54.9307 26.9084 54.1653 27.1858 53.504C27.4631 52.8427 27.8711 52.328 28.4098 51.96C28.9538 51.5867 29.6204 51.4 30.4098 51.4ZM30.4098 52.496C29.6844 52.496 29.1351 52.7653 28.7618 53.304C28.3938 53.8373 28.2098 54.6693 28.2098 55.8C28.2098 56.9093 28.3911 57.7333 28.7538 58.272C29.1218 58.8107 29.6684 59.08 30.3938 59.08C31.1191 59.08 31.6631 58.8107 32.0258 58.272C32.3938 57.7333 32.5778 56.904 32.5778 55.784C32.5778 54.664 32.3964 53.8373 32.0338 53.304C31.6711 52.7653 31.1298 52.496 30.4098 52.496ZM40.0035 51.4C40.7982 51.4 41.4622 51.5813 41.9955 51.944C42.5342 52.3013 42.9368 52.808 43.2035 53.464C43.4755 54.12 43.6115 54.8933 43.6115 55.784C43.6115 56.6427 43.4728 57.4027 43.1955 58.064C42.9182 58.7253 42.5102 59.2453 41.9715 59.624C41.4382 59.9973 40.7768 60.184 39.9875 60.184C39.1982 60.184 38.5342 60.0027 37.9955 59.64C37.4568 59.2773 37.0488 58.768 36.7715 58.112C36.4995 57.4507 36.3635 56.68 36.3635 55.8C36.3635 54.9307 36.5022 54.1653 36.7795 53.504C37.0568 52.8427 37.4648 52.328 38.0035 51.96C38.5475 51.5867 39.2142 51.4 40.0035 51.4ZM40.0035 52.496C39.2782 52.496 38.7288 52.7653 38.3555 53.304C37.9875 53.8373 37.8035 54.6693 37.8035 55.8C37.8035 56.9093 37.9848 57.7333 38.3475 58.272C38.7155 58.8107 39.2622 59.08 39.9875 59.08C40.7128 59.08 41.2568 58.8107 41.6195 58.272C41.9875 57.7333 42.1715 56.904 42.1715 55.784C42.1715 54.664 41.9902 53.8373 41.6275 53.304C41.2648 52.7653 40.7235 52.496 40.0035 52.496ZM62.287 52.928V54.088H56.063V52.928H62.287ZM62.287 55.96V57.128H56.063V55.96H62.287ZM22.584 74.016C23.0373 74.016 23.448 74.056 23.816 74.136C24.184 74.216 24.5333 74.328 24.864 74.472L24.432 75.472C24.16 75.3547 23.872 75.2667 23.568 75.208C23.264 75.1493 22.9493 75.12 22.624 75.12C22.0373 75.12 21.5947 75.2347 21.296 75.464C21.0027 75.6933 20.856 76.0453 20.856 76.52V78.232H23.712L23.568 79.288H20.856V86H19.512V79.288H17.504V78.232H19.512V76.552C19.512 76.0293 19.6453 75.5787 19.912 75.2C20.184 74.8213 20.552 74.5307 21.016 74.328C21.48 74.12 22.0027 74.016 22.584 74.016ZM30.4098 77.4C31.2044 77.4 31.8684 77.5813 32.4018 77.944C32.9404 78.3013 33.3431 78.808 33.6098 79.464C33.8818 80.12 34.0178 80.8933 34.0178 81.784C34.0178 82.6427 33.8791 83.4027 33.6018 84.064C33.3244 84.7253 32.9164 85.2453 32.3778 85.624C31.8444 85.9973 31.1831 86.184 30.3938 86.184C29.6044 86.184 28.9404 86.0027 28.4018 85.64C27.8631 85.2773 27.4551 84.768 27.1778 84.112C26.9058 83.4507 26.7697 82.68 26.7697 81.8C26.7697 80.9307 26.9084 80.1653 27.1858 79.504C27.4631 78.8427 27.8711 78.328 28.4098 77.96C28.9538 77.5867 29.6204 77.4 30.4098 77.4ZM30.4098 78.496C29.6844 78.496 29.1351 78.7653 28.7618 79.304C28.3938 79.8373 28.2098 80.6693 28.2098 81.8C28.2098 82.9093 28.3911 83.7333 28.7538 84.272C29.1218 84.8107 29.6684 85.08 30.3938 85.08C31.1191 85.08 31.6631 84.8107 32.0258 84.272C32.3938 83.7333 32.5778 82.904 32.5778 81.784C32.5778 80.664 32.3964 79.8373 32.0338 79.304C31.6711 78.7653 31.1298 78.496 30.4098 78.496ZM40.0035 77.4C40.7982 77.4 41.4622 77.5813 41.9955 77.944C42.5342 78.3013 42.9368 78.808 43.2035 79.464C43.4755 80.12 43.6115 80.8933 43.6115 81.784C43.6115 82.6427 43.4728 83.4027 43.1955 84.064C42.9182 84.7253 42.5102 85.2453 41.9715 85.624C41.4382 85.9973 40.7768 86.184 39.9875 86.184C39.1982 86.184 38.5342 86.0027 37.9955 85.64C37.4568 85.2773 37.0488 84.768 36.7715 84.112C36.4995 83.4507 36.3635 82.68 36.3635 81.8C36.3635 80.9307 36.5022 80.1653 36.7795 79.504C37.0568 78.8427 37.4648 78.328 38.0035 77.96C38.5475 77.5867 39.2142 77.4 40.0035 77.4ZM40.0035 78.496C39.2782 78.496 38.7288 78.7653 38.3555 79.304C37.9875 79.8373 37.8035 80.6693 37.8035 81.8C37.8035 82.9093 37.9848 83.7333 38.3475 84.272C38.7155 84.8107 39.2622 85.08 39.9875 85.08C40.7128 85.08 41.2568 84.8107 41.6195 84.272C41.9875 83.7333 42.1715 82.904 42.1715 81.784C42.1715 80.664 41.9902 79.8373 41.6275 79.304C41.2648 78.7653 40.7235 78.496 40.0035 78.496ZM62.287 78.928V80.088H56.063V78.928H62.287ZM62.287 81.96V83.128H56.063V81.96H62.287Z" fill="#D5DCE3"/>
<path d="M116.322 22.808L117.442 23.28L114.514 30.248H120.394V31.32H113.09V30.344L116.322 22.808ZM118.97 27.12V34H117.674L117.666 30.504L117.85 27.12H118.97ZM125.843 22.808C126.537 22.808 127.129 22.9413 127.619 23.208C128.115 23.4747 128.497 23.84 128.763 24.304C129.03 24.768 129.163 25.2933 129.163 25.88C129.163 26.3867 129.075 26.8827 128.899 27.368C128.723 27.848 128.441 28.3547 128.051 28.888C127.667 29.416 127.161 30.0027 126.531 30.648C125.907 31.2933 125.139 32.0293 124.227 32.856H129.419L129.251 34H122.699V32.904C123.531 32.1093 124.238 31.4133 124.819 30.816C125.406 30.2187 125.889 29.696 126.267 29.248C126.651 28.7947 126.95 28.384 127.163 28.016C127.382 27.648 127.534 27.2987 127.619 26.968C127.705 26.632 127.747 26.2853 127.747 25.928C127.747 25.3093 127.571 24.8213 127.219 24.464C126.873 24.1067 126.393 23.928 125.779 23.928C125.235 23.928 124.79 24.0213 124.443 24.208C124.097 24.3947 123.75 24.6933 123.403 25.104L122.475 24.384C122.913 23.8507 123.398 23.456 123.931 23.2C124.465 22.9387 125.102 22.808 125.843 22.808ZM79.4585 51.192C79.4585 51.5227 79.3385 51.8 79.0985 52.024C78.8638 52.248 78.5785 52.36 78.2425 52.36C77.9065 52.36 77.6212 52.248 77.3865 52.024C77.1572 51.8 77.0425 51.5227 77.0425 51.192C77.0425 51.0587 77.0585 50.9147 77.0905 50.76C77.1225 50.6 77.1998 50.392 77.3225 50.136L78.6425 47.376H79.6825L79.0265 50.312C79.1598 50.4027 79.2638 50.528 79.3385 50.688C79.4185 50.8427 79.4585 51.0107 79.4585 51.192ZM86.1083 52.672C86.4176 52.2667 86.7723 51.9547 87.1723 51.736C87.5776 51.512 88.0229 51.4 88.5083 51.4C89.2603 51.4 89.8683 51.5813 90.3323 51.944C90.7963 52.3067 91.1349 52.8187 91.3483 53.48C91.5616 54.136 91.6683 54.904 91.6683 55.784C91.6683 56.632 91.5403 57.3893 91.2843 58.056C91.0283 58.7173 90.6523 59.2373 90.1563 59.616C89.6656 59.9947 89.0576 60.184 88.3323 60.184C87.3563 60.184 86.5909 59.832 86.0363 59.128L85.9403 60H84.7643V48.184L86.1083 48.016V52.672ZM88.0123 59.096C88.7163 59.096 89.2576 58.824 89.6363 58.28C90.0149 57.736 90.2043 56.9013 90.2043 55.776C90.2043 55.04 90.1296 54.4293 89.9803 53.944C89.8309 53.4533 89.6069 53.088 89.3083 52.848C89.0149 52.6027 88.6523 52.48 88.2203 52.48C87.7509 52.48 87.3376 52.6213 86.9803 52.904C86.6283 53.1813 86.3376 53.4907 86.1083 53.832V58.008C86.3269 58.3387 86.6016 58.6027 86.9323 58.8C87.2683 58.9973 87.6283 59.096 88.0123 59.096ZM100.39 58.16C100.39 58.496 100.446 58.7413 100.558 58.896C100.67 59.0507 100.843 59.1653 101.078 59.24L100.75 60.184C100.387 60.136 100.07 60.0213 99.798 59.84C99.526 59.6533 99.3287 59.3733 99.206 59C98.902 59.3893 98.5233 59.6853 98.07 59.888C97.6167 60.0853 97.1153 60.184 96.566 60.184C95.7233 60.184 95.0593 59.9467 94.574 59.472C94.0887 58.9973 93.846 58.368 93.846 57.584C93.846 56.7147 94.1847 56.048 94.862 55.584C95.5393 55.12 96.518 54.888 97.798 54.888H99.038V54.184C99.038 53.576 98.8593 53.1467 98.502 52.896C98.15 52.64 97.6593 52.512 97.03 52.512C96.7527 52.512 96.4273 52.5467 96.054 52.616C95.6807 52.68 95.2753 52.7893 94.838 52.944L94.486 51.928C95.0033 51.736 95.4887 51.6 95.942 51.52C96.3953 51.44 96.8273 51.4 97.238 51.4C98.2887 51.4 99.0753 51.6453 99.598 52.136C100.126 52.6213 100.39 53.2827 100.39 54.12V58.16ZM96.91 59.16C97.326 59.16 97.7233 59.056 98.102 58.848C98.4807 58.6347 98.7927 58.3413 99.038 57.968V55.8H97.822C96.894 55.8 96.238 55.96 95.854 56.28C95.4753 56.6 95.286 57.0293 95.286 57.568C95.286 58.0907 95.4193 58.488 95.686 58.76C95.958 59.0267 96.366 59.16 96.91 59.16ZM104.032 60V58.968H105.344V52.608H104.032V51.576H106.368L106.616 53.568C106.941 52.8747 107.336 52.3387 107.8 51.96C108.264 51.5813 108.877 51.392 109.64 51.392C109.874 51.392 110.082 51.4107 110.264 51.448C110.45 51.48 110.64 51.5227 110.832 51.576L110.44 52.776C110.264 52.728 110.104 52.6933 109.96 52.672C109.816 52.6453 109.65 52.632 109.464 52.632C108.818 52.632 108.264 52.8613 107.8 53.32C107.336 53.7787 106.965 54.472 106.688 55.4V58.968H108.4V60H104.032ZM109.536 54.424V52.592L109.672 51.576H110.832L110.64 54.424H109.536ZM115.626 48.544C115.626 48.2187 115.748 47.944 115.994 47.72C116.239 47.4907 116.522 47.376 116.842 47.376C117.178 47.376 117.463 47.4907 117.698 47.72C117.938 47.944 118.058 48.2187 118.058 48.544C118.058 48.6987 118.039 48.848 118.002 48.992C117.964 49.136 117.884 49.3387 117.762 49.6L116.442 52.36H115.402L116.058 49.424C115.924 49.3333 115.818 49.2107 115.738 49.056C115.663 48.896 115.626 48.7253 115.626 48.544ZM81.8585 85.576C81.5705 85.768 81.2212 85.9173 80.8105 86.024C80.3998 86.1307 79.9972 86.184 79.6025 86.184C78.6958 86.184 77.9972 85.9467 77.5065 85.472C77.0158 84.9973 76.7705 84.3867 76.7705 83.64V78.616H74.8345V77.576H76.7705V75.664L78.1145 75.504V77.576H81.0265L80.8665 78.616H78.1145V83.624C78.1145 84.0933 78.2372 84.4507 78.4825 84.696C78.7332 84.9413 79.1465 85.064 79.7225 85.064C80.0372 85.064 80.3278 85.0267 80.5945 84.952C80.8612 84.8773 81.1092 84.7813 81.3385 84.664L81.8585 85.576ZM84.8443 86V84.968H86.1563V78.608H84.8443V77.576H87.1803L87.4283 79.568C87.7536 78.8747 88.1483 78.3387 88.6123 77.96C89.0763 77.5813 89.6896 77.392 90.4523 77.392C90.6869 77.392 90.8949 77.4107 91.0763 77.448C91.2629 77.48 91.4523 77.5227 91.6443 77.576L91.2523 78.776C91.0763 78.728 90.9163 78.6933 90.7723 78.672C90.6283 78.6453 90.4629 78.632 90.2763 78.632C89.6309 78.632 89.0763 78.8613 88.6123 79.32C88.1483 79.7787 87.7776 80.472 87.5003 81.4V84.968H89.2123V86H84.8443ZM90.3483 80.424V78.592L90.4843 77.576H91.6443L91.4523 80.424H90.3483ZM95.702 77.576V83.544C95.702 84.0987 95.8167 84.4987 96.046 84.744C96.2753 84.9893 96.6327 85.112 97.118 85.112C97.582 85.112 98.0193 84.9813 98.43 84.72C98.846 84.4533 99.1687 84.1387 99.398 83.776V77.576H100.742V86H99.598L99.486 84.864C99.1553 85.2907 98.7473 85.6187 98.262 85.848C97.7767 86.072 97.286 86.184 96.79 86.184C95.974 86.184 95.3633 85.968 94.958 85.536C94.558 85.0987 94.358 84.488 94.358 83.704V77.576H95.702ZM105.008 82.264C105.034 82.9147 105.16 83.448 105.384 83.864C105.608 84.2747 105.904 84.5787 106.272 84.776C106.64 84.968 107.04 85.064 107.472 85.064C107.904 85.064 108.293 85 108.64 84.872C108.992 84.744 109.352 84.5547 109.72 84.304L110.352 85.192C109.957 85.5013 109.506 85.744 109 85.92C108.498 86.096 107.984 86.184 107.456 86.184C106.64 86.184 105.944 86 105.368 85.632C104.792 85.264 104.352 84.752 104.048 84.096C103.749 83.4347 103.6 82.6693 103.6 81.8C103.6 80.9467 103.752 80.1893 104.056 79.528C104.36 78.8667 104.786 78.3467 105.336 77.968C105.885 77.5893 106.533 77.4 107.28 77.4C107.989 77.4 108.6 77.568 109.112 77.904C109.624 78.2347 110.016 78.7093 110.288 79.328C110.565 79.9413 110.704 80.6747 110.704 81.528C110.704 81.672 110.701 81.808 110.696 81.936C110.69 82.0587 110.682 82.168 110.672 82.264H105.008ZM107.296 78.504C106.672 78.504 106.149 78.7253 105.728 79.168C105.312 79.6107 105.074 80.296 105.016 81.224H109.408C109.392 80.3227 109.194 79.6453 108.816 79.192C108.437 78.7333 107.93 78.504 107.296 78.504Z" fill="#6AD445"/>
<path d="M172.222 35.648L171.134 35.168L177.982 21.048L179.054 21.576L172.222 35.648ZM180.222 35.648L179.134 35.168L185.982 21.048L187.054 21.576L180.222 35.648ZM204.865 22.016C205.319 22.016 205.729 22.056 206.097 22.136C206.465 22.216 206.815 22.328 207.145 22.472L206.713 23.472C206.441 23.3547 206.153 23.2667 205.849 23.208C205.545 23.1493 205.231 23.12 204.905 23.12C204.319 23.12 203.876 23.2347 203.577 23.464C203.284 23.6933 203.137 24.0453 203.137 24.52V26.232H205.993L205.849 27.288H203.137V34H201.793V27.288H199.785V26.232H201.793V24.552C201.793 24.0293 201.927 23.5787 202.193 23.2C202.465 22.8213 202.833 22.5307 203.297 22.328C203.761 22.12 204.284 22.016 204.865 22.016ZM212.691 25.4C213.486 25.4 214.15 25.5813 214.683 25.944C215.222 26.3013 215.624 26.808 215.891 27.464C216.163 28.12 216.299 28.8933 216.299 29.784C216.299 30.6427 216.16 31.4027 215.883 32.064C215.606 32.7253 215.198 33.2453 214.659 33.624C214.126 33.9973 213.464 34.184 212.675 34.184C211.886 34.184 211.222 34.0027 210.683 33.64C210.144 33.2773 209.736 32.768 209.459 32.112C209.187 31.4507 209.051 30.68 209.051 29.8C209.051 28.9307 209.19 28.1653 209.467 27.504C209.744 26.8427 210.152 26.328 210.691 25.96C211.235 25.5867 211.902 25.4 212.691 25.4ZM212.691 26.496C211.966 26.496 211.416 26.7653 211.043 27.304C210.675 27.8373 210.491 28.6693 210.491 29.8C210.491 30.9093 210.672 31.7333 211.035 32.272C211.403 32.8107 211.95 33.08 212.675 33.08C213.4 33.08 213.944 32.8107 214.307 32.272C214.675 31.7333 214.859 30.904 214.859 29.784C214.859 28.664 214.678 27.8373 214.315 27.304C213.952 26.7653 213.411 26.496 212.691 26.496ZM222.285 25.4C223.079 25.4 223.743 25.5813 224.277 25.944C224.815 26.3013 225.218 26.808 225.485 27.464C225.757 28.12 225.893 28.8933 225.893 29.784C225.893 30.6427 225.754 31.4027 225.477 32.064C225.199 32.7253 224.791 33.2453 224.253 33.624C223.719 33.9973 223.058 34.184 222.269 34.184C221.479 34.184 220.815 34.0027 220.277 33.64C219.738 33.2773 219.33 32.768 219.053 32.112C218.781 31.4507 218.645 30.68 218.645 29.8C218.645 28.9307 218.783 28.1653 219.061 27.504C219.338 26.8427 219.746 26.328 220.285 25.96C220.829 25.5867 221.495 25.4 222.285 25.4ZM222.285 26.496C221.559 26.496 221.01 26.7653 220.637 27.304C220.269 27.8373 220.085 28.6693 220.085 29.8C220.085 30.9093 220.266 31.7333 220.629 32.272C220.997 32.8107 221.543 33.08 222.269 33.08C222.994 33.08 223.538 32.8107 223.901 32.272C224.269 31.7333 224.453 30.904 224.453 29.784C224.453 28.664 224.271 27.8373 223.909 27.304C223.546 26.7653 223.005 26.496 222.285 26.496ZM242.528 25.576V32.936H244.904V34H238.584V32.936H241.184V26.64H238.664V25.576H242.528ZM241.456 21.632C241.755 21.632 241.992 21.7227 242.168 21.904C242.35 22.0853 242.44 22.3067 242.44 22.568C242.44 22.84 242.35 23.0693 242.168 23.256C241.992 23.4373 241.755 23.528 241.456 23.528C241.174 23.528 240.942 23.4373 240.76 23.256C240.579 23.0693 240.488 22.84 240.488 22.568C240.488 22.3067 240.579 22.0853 240.76 21.904C240.942 21.7227 241.174 21.632 241.456 21.632ZM250.722 33.072C251.367 33.072 251.877 32.952 252.25 32.712C252.629 32.4667 252.818 32.1413 252.818 31.736C252.818 31.48 252.77 31.2587 252.674 31.072C252.583 30.8853 252.394 30.7173 252.106 30.568C251.818 30.4187 251.375 30.2693 250.778 30.12C250.197 29.976 249.69 29.8107 249.258 29.624C248.831 29.432 248.498 29.184 248.258 28.88C248.023 28.576 247.906 28.1813 247.906 27.696C247.906 27.2213 248.039 26.8133 248.306 26.472C248.578 26.1253 248.954 25.8613 249.434 25.68C249.914 25.4933 250.471 25.4 251.106 25.4C251.783 25.4 252.373 25.4907 252.874 25.672C253.381 25.848 253.81 26.0667 254.162 26.328L253.57 27.24C253.25 27.0213 252.898 26.8427 252.514 26.704C252.13 26.56 251.666 26.488 251.122 26.488C250.461 26.488 249.991 26.592 249.714 26.8C249.437 27.0027 249.298 27.2667 249.298 27.592C249.298 27.8373 249.365 28.0427 249.498 28.208C249.637 28.368 249.869 28.5147 250.194 28.648C250.519 28.776 250.967 28.9173 251.538 29.072C252.087 29.216 252.565 29.3893 252.97 29.592C253.381 29.7947 253.701 30.0613 253.93 30.392C254.159 30.7227 254.274 31.1493 254.274 31.672C254.274 32.2693 254.103 32.7547 253.762 33.128C253.421 33.496 252.978 33.7653 252.434 33.936C251.895 34.1013 251.325 34.184 250.722 34.184C249.959 34.184 249.309 34.0747 248.77 33.856C248.237 33.632 247.789 33.3627 247.426 33.048L248.194 32.16C248.525 32.432 248.903 32.6533 249.33 32.824C249.762 32.9893 250.226 33.072 250.722 33.072ZM267.046 34V25.576H268.19L268.294 26.744C268.635 26.312 269.062 25.9813 269.574 25.752C270.091 25.5173 270.592 25.4 271.078 25.4C271.904 25.4 272.504 25.6187 272.878 26.056C273.256 26.4933 273.446 27.1013 273.446 27.88V34H272.102V28.872C272.102 28.296 272.07 27.832 272.006 27.48C271.942 27.1227 271.808 26.864 271.606 26.704C271.403 26.5387 271.088 26.456 270.662 26.456C270.331 26.456 270.019 26.528 269.726 26.672C269.438 26.816 269.179 26.9973 268.95 27.216C268.726 27.4293 268.539 27.6453 268.39 27.864V34H267.046ZM279.847 25.4C280.642 25.4 281.306 25.5813 281.839 25.944C282.378 26.3013 282.781 26.808 283.047 27.464C283.319 28.12 283.455 28.8933 283.455 29.784C283.455 30.6427 283.317 31.4027 283.039 32.064C282.762 32.7253 282.354 33.2453 281.815 33.624C281.282 33.9973 280.621 34.184 279.831 34.184C279.042 34.184 278.378 34.0027 277.839 33.64C277.301 33.2773 276.893 32.768 276.615 32.112C276.343 31.4507 276.207 30.68 276.207 29.8C276.207 28.9307 276.346 28.1653 276.623 27.504C276.901 26.8427 277.309 26.328 277.847 25.96C278.391 25.5867 279.058 25.4 279.847 25.4ZM279.847 26.496C279.122 26.496 278.573 26.7653 278.199 27.304C277.831 27.8373 277.647 28.6693 277.647 29.8C277.647 30.9093 277.829 31.7333 278.191 32.272C278.559 32.8107 279.106 33.08 279.831 33.08C280.557 33.08 281.101 32.8107 281.463 32.272C281.831 31.7333 282.015 30.904 282.015 29.784C282.015 28.664 281.834 27.8373 281.471 27.304C281.109 26.7653 280.567 26.496 279.847 26.496ZM292.473 34H290.569L289.481 27.816L288.297 34H286.441L284.905 25.576H286.281L287.353 33.168L288.697 26.648H290.289L291.561 33.168L292.633 25.576H293.945L292.473 34ZM311.453 32.16C311.453 32.496 311.509 32.7413 311.621 32.896C311.733 33.0507 311.906 33.1653 312.141 33.24L311.812 34.184C311.45 34.136 311.133 34.0213 310.861 33.84C310.589 33.6533 310.391 33.3733 310.269 33C309.965 33.3893 309.586 33.6853 309.133 33.888C308.679 34.0853 308.178 34.184 307.629 34.184C306.786 34.184 306.122 33.9467 305.637 33.472C305.151 32.9973 304.909 32.368 304.909 31.584C304.909 30.7147 305.247 30.048 305.924 29.584C306.602 29.12 307.581 28.888 308.861 28.888H310.101V28.184C310.101 27.576 309.922 27.1467 309.565 26.896C309.213 26.64 308.722 26.512 308.093 26.512C307.815 26.512 307.49 26.5467 307.117 26.616C306.743 26.68 306.338 26.7893 305.901 26.944L305.549 25.928C306.066 25.736 306.551 25.6 307.005 25.52C307.458 25.44 307.89 25.4 308.301 25.4C309.351 25.4 310.138 25.6453 310.661 26.136C311.189 26.6213 311.453 27.2827 311.453 28.12V32.16ZM307.973 33.16C308.389 33.16 308.786 33.056 309.165 32.848C309.543 32.6347 309.855 32.3413 310.101 31.968V29.8H308.885C307.957 29.8 307.301 29.96 306.917 30.28C306.538 30.6 306.349 31.0293 306.349 31.568C306.349 32.0907 306.482 32.488 306.749 32.76C307.021 33.0267 307.429 33.16 307.973 33.16ZM324.608 34V25.576H325.752L325.856 26.744C326.197 26.312 326.624 25.9813 327.136 25.752C327.653 25.5173 328.155 25.4 328.64 25.4C329.467 25.4 330.067 25.6187 330.44 26.056C330.819 26.4933 331.008 27.1013 331.008 27.88V34H329.664V28.872C329.664 28.296 329.632 27.832 329.568 27.48C329.504 27.1227 329.371 26.864 329.168 26.704C328.965 26.5387 328.651 26.456 328.224 26.456C327.893 26.456 327.581 26.528 327.288 26.672C327 26.816 326.741 26.9973 326.512 27.216C326.288 27.4293 326.101 27.6453 325.952 27.864V34H324.608ZM335.546 25.576V31.544C335.546 32.0987 335.66 32.4987 335.89 32.744C336.119 32.9893 336.476 33.112 336.962 33.112C337.426 33.112 337.863 32.9813 338.274 32.72C338.69 32.4533 339.012 32.1387 339.242 31.776V25.576H340.586V34H339.442L339.33 32.864C338.999 33.2907 338.591 33.6187 338.106 33.848C337.62 34.072 337.13 34.184 336.634 34.184C335.818 34.184 335.207 33.968 334.802 33.536C334.402 33.0987 334.202 32.488 334.202 31.704V25.576H335.546ZM349.348 25.4C349.62 25.4 349.878 25.4587 350.124 25.576C350.374 25.6933 350.58 25.92 350.74 26.256C350.9 26.592 350.98 27.0827 350.98 27.728V34H349.732V27.944C349.732 27.416 349.7 27.0347 349.636 26.8C349.572 26.5653 349.388 26.448 349.084 26.448C348.833 26.448 348.582 26.528 348.332 26.688C348.086 26.8427 347.846 27.0987 347.612 27.456V34H346.356V27.944C346.356 27.416 346.324 27.0347 346.26 26.8C346.196 26.5653 346.012 26.448 345.708 26.448C345.446 26.448 345.193 26.528 344.948 26.688C344.708 26.8427 344.47 27.0987 344.236 27.456V34H342.996V25.576H344.052L344.132 26.552C344.361 26.2267 344.617 25.9547 344.9 25.736C345.188 25.512 345.542 25.4 345.964 25.4C346.284 25.4 346.585 25.4773 346.868 25.632C347.15 25.7813 347.358 26.0747 347.492 26.512C347.721 26.1813 347.98 25.9147 348.268 25.712C348.556 25.504 348.916 25.4 349.348 25.4ZM354.733 26.672C355.043 26.2667 355.397 25.9547 355.797 25.736C356.203 25.512 356.648 25.4 357.133 25.4C357.885 25.4 358.493 25.5813 358.957 25.944C359.421 26.3067 359.76 26.8187 359.973 27.48C360.187 28.136 360.293 28.904 360.293 29.784C360.293 30.632 360.165 31.3893 359.909 32.056C359.653 32.7173 359.277 33.2373 358.781 33.616C358.291 33.9947 357.683 34.184 356.957 34.184C355.981 34.184 355.216 33.832 354.661 33.128L354.565 34H353.389V22.184L354.733 22.016V26.672ZM356.637 33.096C357.341 33.096 357.883 32.824 358.261 32.28C358.64 31.736 358.829 30.9013 358.829 29.776C358.829 29.04 358.755 28.4293 358.605 27.944C358.456 27.4533 358.232 27.088 357.933 26.848C357.64 26.6027 357.277 26.48 356.845 26.48C356.376 26.48 355.963 26.6213 355.605 26.904C355.253 27.1813 354.963 27.4907 354.733 27.832V32.008C354.952 32.3387 355.227 32.6027 355.557 32.8C355.893 32.9973 356.253 33.096 356.637 33.096ZM364.039 30.264C364.066 30.9147 364.191 31.448 364.415 31.864C364.639 32.2747 364.935 32.5787 365.303 32.776C365.671 32.968 366.071 33.064 366.503 33.064C366.935 33.064 367.324 33 367.671 32.872C368.023 32.744 368.383 32.5547 368.751 32.304L369.383 33.192C368.988 33.5013 368.538 33.744 368.031 33.92C367.53 34.096 367.015 34.184 366.487 34.184C365.671 34.184 364.975 34 364.399 33.632C363.823 33.264 363.383 32.752 363.079 32.096C362.78 31.4347 362.631 30.6693 362.631 29.8C362.631 28.9467 362.783 28.1893 363.087 27.528C363.391 26.8667 363.818 26.3467 364.367 25.968C364.916 25.5893 365.564 25.4 366.311 25.4C367.02 25.4 367.631 25.568 368.143 25.904C368.655 26.2347 369.047 26.7093 369.319 27.328C369.596 27.9413 369.735 28.6747 369.735 29.528C369.735 29.672 369.732 29.808 369.727 29.936C369.722 30.0587 369.714 30.168 369.703 30.264H364.039ZM366.327 26.504C365.703 26.504 365.18 26.7253 364.759 27.168C364.343 27.6107 364.106 28.296 364.047 29.224H368.439C368.423 28.3227 368.226 27.6453 367.847 27.192C367.468 26.7333 366.962 26.504 366.327 26.504ZM372.657 34V32.968H373.969V26.608H372.657V25.576H374.993L375.241 27.568C375.566 26.8747 375.961 26.3387 376.425 25.96C376.889 25.5813 377.502 25.392 378.265 25.392C378.499 25.392 378.707 25.4107 378.889 25.448C379.075 25.48 379.265 25.5227 379.457 25.576L379.065 26.776C378.889 26.728 378.729 26.6933 378.585 26.672C378.441 26.6453 378.275 26.632 378.089 26.632C377.443 26.632 376.889 26.8613 376.425 27.32C375.961 27.7787 375.59 28.472 375.313 29.4V32.968H377.025V34H372.657ZM378.161 28.424V26.592L378.297 25.576H379.457L379.265 28.424H378.161ZM172.222 61.648L171.134 61.168L177.982 47.048L179.054 47.576L172.222 61.648ZM180.222 61.648L179.134 61.168L185.982 47.048L187.054 47.576L180.222 61.648ZM204.865 48.016C205.319 48.016 205.729 48.056 206.097 48.136C206.465 48.216 206.815 48.328 207.145 48.472L206.713 49.472C206.441 49.3547 206.153 49.2667 205.849 49.208C205.545 49.1493 205.231 49.12 204.905 49.12C204.319 49.12 203.876 49.2347 203.577 49.464C203.284 49.6933 203.137 50.0453 203.137 50.52V52.232H205.993L205.849 53.288H203.137V60H201.793V53.288H199.785V52.232H201.793V50.552C201.793 50.0293 201.927 49.5787 202.193 49.2C202.465 48.8213 202.833 48.5307 203.297 48.328C203.761 48.12 204.284 48.016 204.865 48.016ZM212.691 51.4C213.486 51.4 214.15 51.5813 214.683 51.944C215.222 52.3013 215.624 52.808 215.891 53.464C216.163 54.12 216.299 54.8933 216.299 55.784C216.299 56.6427 216.16 57.4027 215.883 58.064C215.606 58.7253 215.198 59.2453 214.659 59.624C214.126 59.9973 213.464 60.184 212.675 60.184C211.886 60.184 211.222 60.0027 210.683 59.64C210.144 59.2773 209.736 58.768 209.459 58.112C209.187 57.4507 209.051 56.68 209.051 55.8C209.051 54.9307 209.19 54.1653 209.467 53.504C209.744 52.8427 210.152 52.328 210.691 51.96C211.235 51.5867 211.902 51.4 212.691 51.4ZM212.691 52.496C211.966 52.496 211.416 52.7653 211.043 53.304C210.675 53.8373 210.491 54.6693 210.491 55.8C210.491 56.9093 210.672 57.7333 211.035 58.272C211.403 58.8107 211.95 59.08 212.675 59.08C213.4 59.08 213.944 58.8107 214.307 58.272C214.675 57.7333 214.859 56.904 214.859 55.784C214.859 54.664 214.678 53.8373 214.315 53.304C213.952 52.7653 213.411 52.496 212.691 52.496ZM222.285 51.4C223.079 51.4 223.743 51.5813 224.277 51.944C224.815 52.3013 225.218 52.808 225.485 53.464C225.757 54.12 225.893 54.8933 225.893 55.784C225.893 56.6427 225.754 57.4027 225.477 58.064C225.199 58.7253 224.791 59.2453 224.253 59.624C223.719 59.9973 223.058 60.184 222.269 60.184C221.479 60.184 220.815 60.0027 220.277 59.64C219.738 59.2773 219.33 58.768 219.053 58.112C218.781 57.4507 218.645 56.68 218.645 55.8C218.645 54.9307 218.783 54.1653 219.061 53.504C219.338 52.8427 219.746 52.328 220.285 51.96C220.829 51.5867 221.495 51.4 222.285 51.4ZM222.285 52.496C221.559 52.496 221.01 52.7653 220.637 53.304C220.269 53.8373 220.085 54.6693 220.085 55.8C220.085 56.9093 220.266 57.7333 220.629 58.272C220.997 58.8107 221.543 59.08 222.269 59.08C222.994 59.08 223.538 58.8107 223.901 58.272C224.269 57.7333 224.453 56.904 224.453 55.784C224.453 54.664 224.271 53.8373 223.909 53.304C223.546 52.7653 223.005 52.496 222.285 52.496ZM242.528 51.576V58.936H244.904V60H238.584V58.936H241.184V52.64H238.664V51.576H242.528ZM241.456 47.632C241.755 47.632 241.992 47.7227 242.168 47.904C242.35 48.0853 242.44 48.3067 242.44 48.568C242.44 48.84 242.35 49.0693 242.168 49.256C241.992 49.4373 241.755 49.528 241.456 49.528C241.174 49.528 240.942 49.4373 240.76 49.256C240.579 49.0693 240.488 48.84 240.488 48.568C240.488 48.3067 240.579 48.0853 240.76 47.904C240.942 47.7227 241.174 47.632 241.456 47.632ZM250.722 59.072C251.367 59.072 251.877 58.952 252.25 58.712C252.629 58.4667 252.818 58.1413 252.818 57.736C252.818 57.48 252.77 57.2587 252.674 57.072C252.583 56.8853 252.394 56.7173 252.106 56.568C251.818 56.4187 251.375 56.2693 250.778 56.12C250.197 55.976 249.69 55.8107 249.258 55.624C248.831 55.432 248.498 55.184 248.258 54.88C248.023 54.576 247.906 54.1813 247.906 53.696C247.906 53.2213 248.039 52.8133 248.306 52.472C248.578 52.1253 248.954 51.8613 249.434 51.68C249.914 51.4933 250.471 51.4 251.106 51.4C251.783 51.4 252.373 51.4907 252.874 51.672C253.381 51.848 253.81 52.0667 254.162 52.328L253.57 53.24C253.25 53.0213 252.898 52.8427 252.514 52.704C252.13 52.56 251.666 52.488 251.122 52.488C250.461 52.488 249.991 52.592 249.714 52.8C249.437 53.0027 249.298 53.2667 249.298 53.592C249.298 53.8373 249.365 54.0427 249.498 54.208C249.637 54.368 249.869 54.5147 250.194 54.648C250.519 54.776 250.967 54.9173 251.538 55.072C252.087 55.216 252.565 55.3893 252.97 55.592C253.381 55.7947 253.701 56.0613 253.93 56.392C254.159 56.7227 254.274 57.1493 254.274 57.672C254.274 58.2693 254.103 58.7547 253.762 59.128C253.421 59.496 252.978 59.7653 252.434 59.936C251.895 60.1013 251.325 60.184 250.722 60.184C249.959 60.184 249.309 60.0747 248.77 59.856C248.237 59.632 247.789 59.3627 247.426 59.048L248.194 58.16C248.525 58.432 248.903 58.6533 249.33 58.824C249.762 58.9893 250.226 59.072 250.722 59.072ZM267.046 60V51.576H268.19L268.294 52.744C268.635 52.312 269.062 51.9813 269.574 51.752C270.091 51.5173 270.592 51.4 271.078 51.4C271.904 51.4 272.504 51.6187 272.878 52.056C273.256 52.4933 273.446 53.1013 273.446 53.88V60H272.102V54.872C272.102 54.296 272.07 53.832 272.006 53.48C271.942 53.1227 271.808 52.864 271.606 52.704C271.403 52.5387 271.088 52.456 270.662 52.456C270.331 52.456 270.019 52.528 269.726 52.672C269.438 52.816 269.179 52.9973 268.95 53.216C268.726 53.4293 268.539 53.6453 268.39 53.864V60H267.046ZM279.847 51.4C280.642 51.4 281.306 51.5813 281.839 51.944C282.378 52.3013 282.781 52.808 283.047 53.464C283.319 54.12 283.455 54.8933 283.455 55.784C283.455 56.6427 283.317 57.4027 283.039 58.064C282.762 58.7253 282.354 59.2453 281.815 59.624C281.282 59.9973 280.621 60.184 279.831 60.184C279.042 60.184 278.378 60.0027 277.839 59.64C277.301 59.2773 276.893 58.768 276.615 58.112C276.343 57.4507 276.207 56.68 276.207 55.8C276.207 54.9307 276.346 54.1653 276.623 53.504C276.901 52.8427 277.309 52.328 277.847 51.96C278.391 51.5867 279.058 51.4 279.847 51.4ZM279.847 52.496C279.122 52.496 278.573 52.7653 278.199 53.304C277.831 53.8373 277.647 54.6693 277.647 55.8C277.647 56.9093 277.829 57.7333 278.191 58.272C278.559 58.8107 279.106 59.08 279.831 59.08C280.557 59.08 281.101 58.8107 281.463 58.272C281.831 57.7333 282.015 56.904 282.015 55.784C282.015 54.664 281.834 53.8373 281.471 53.304C281.109 52.7653 280.567 52.496 279.847 52.496ZM292.473 60H290.569L289.481 53.816L288.297 60H286.441L284.905 51.576H286.281L287.353 59.168L288.697 52.648H290.289L291.561 59.168L292.633 51.576H293.945L292.473 60ZM311.453 58.16C311.453 58.496 311.509 58.7413 311.621 58.896C311.733 59.0507 311.906 59.1653 312.141 59.24L311.812 60.184C311.45 60.136 311.133 60.0213 310.861 59.84C310.589 59.6533 310.391 59.3733 310.269 59C309.965 59.3893 309.586 59.6853 309.133 59.888C308.679 60.0853 308.178 60.184 307.629 60.184C306.786 60.184 306.122 59.9467 305.637 59.472C305.151 58.9973 304.909 58.368 304.909 57.584C304.909 56.7147 305.247 56.048 305.924 55.584C306.602 55.12 307.581 54.888 308.861 54.888H310.101V54.184C310.101 53.576 309.922 53.1467 309.565 52.896C309.213 52.64 308.722 52.512 308.093 52.512C307.815 52.512 307.49 52.5467 307.117 52.616C306.743 52.68 306.338 52.7893 305.901 52.944L305.549 51.928C306.066 51.736 306.551 51.6 307.005 51.52C307.458 51.44 307.89 51.4 308.301 51.4C309.351 51.4 310.138 51.6453 310.661 52.136C311.189 52.6213 311.453 53.2827 311.453 54.12V58.16ZM307.973 59.16C308.389 59.16 308.786 59.056 309.165 58.848C309.543 58.6347 309.855 58.3413 310.101 57.968V55.8H308.885C307.957 55.8 307.301 55.96 306.917 56.28C306.538 56.6 306.349 57.0293 306.349 57.568C306.349 58.0907 306.482 58.488 306.749 58.76C307.021 59.0267 307.429 59.16 307.973 59.16ZM327.472 59.072C328.117 59.072 328.627 58.952 329 58.712C329.379 58.4667 329.568 58.1413 329.568 57.736C329.568 57.48 329.52 57.2587 329.424 57.072C329.333 56.8853 329.144 56.7173 328.856 56.568C328.568 56.4187 328.125 56.2693 327.528 56.12C326.947 55.976 326.44 55.8107 326.008 55.624C325.581 55.432 325.248 55.184 325.008 54.88C324.773 54.576 324.656 54.1813 324.656 53.696C324.656 53.2213 324.789 52.8133 325.056 52.472C325.328 52.1253 325.704 51.8613 326.184 51.68C326.664 51.4933 327.221 51.4 327.856 51.4C328.533 51.4 329.123 51.4907 329.624 51.672C330.131 51.848 330.56 52.0667 330.912 52.328L330.32 53.24C330 53.0213 329.648 52.8427 329.264 52.704C328.88 52.56 328.416 52.488 327.872 52.488C327.211 52.488 326.741 52.592 326.464 52.8C326.187 53.0027 326.048 53.2667 326.048 53.592C326.048 53.8373 326.115 54.0427 326.248 54.208C326.387 54.368 326.619 54.5147 326.944 54.648C327.269 54.776 327.717 54.9173 328.288 55.072C328.837 55.216 329.315 55.3893 329.72 55.592C330.131 55.7947 330.451 56.0613 330.68 56.392C330.909 56.7227 331.024 57.1493 331.024 57.672C331.024 58.2693 330.853 58.7547 330.512 59.128C330.171 59.496 329.728 59.7653 329.184 59.936C328.645 60.1013 328.075 60.184 327.472 60.184C326.709 60.184 326.059 60.0747 325.52 59.856C324.987 59.632 324.539 59.3627 324.176 59.048L324.944 58.16C325.275 58.432 325.653 58.6533 326.08 58.824C326.512 58.9893 326.976 59.072 327.472 59.072ZM340.89 59.576C340.602 59.768 340.252 59.9173 339.842 60.024C339.431 60.1307 339.028 60.184 338.634 60.184C337.727 60.184 337.028 59.9467 336.538 59.472C336.047 58.9973 335.802 58.3867 335.802 57.64V52.616H333.866V51.576H335.802V49.664L337.146 49.504V51.576H340.058L339.898 52.616H337.146V57.624C337.146 58.0933 337.268 58.4507 337.514 58.696C337.764 58.9413 338.178 59.064 338.754 59.064C339.068 59.064 339.359 59.0267 339.626 58.952C339.892 58.8773 340.14 58.7813 340.37 58.664L340.89 59.576ZM343.876 60V58.968H345.188V52.608H343.876V51.576H346.212L346.46 53.568C346.785 52.8747 347.18 52.3387 347.644 51.96C348.108 51.5813 348.721 51.392 349.484 51.392C349.718 51.392 349.926 51.4107 350.108 51.448C350.294 51.48 350.484 51.5227 350.676 51.576L350.284 52.776C350.108 52.728 349.948 52.6933 349.804 52.672C349.66 52.6453 349.494 52.632 349.308 52.632C348.662 52.632 348.108 52.8613 347.644 53.32C347.18 53.7787 346.809 54.472 346.532 55.4V58.968H348.244V60H343.876ZM349.38 54.424V52.592L349.516 51.576H350.676L350.484 54.424H349.38ZM357.653 51.576V58.936H360.029V60H353.709V58.936H356.309V52.64H353.789V51.576H357.653ZM356.581 47.632C356.88 47.632 357.117 47.7227 357.293 47.904C357.475 48.0853 357.565 48.3067 357.565 48.568C357.565 48.84 357.475 49.0693 357.293 49.256C357.117 49.4373 356.88 49.528 356.581 49.528C356.299 49.528 356.067 49.4373 355.885 49.256C355.704 49.0693 355.613 48.84 355.613 48.568C355.613 48.3067 355.704 48.0853 355.885 47.904C356.067 47.7227 356.299 47.632 356.581 47.632ZM362.983 60V51.576H364.127L364.231 52.744C364.572 52.312 364.999 51.9813 365.511 51.752C366.028 51.5173 366.53 51.4 367.015 51.4C367.842 51.4 368.442 51.6187 368.815 52.056C369.194 52.4933 369.383 53.1013 369.383 53.88V60H368.039V54.872C368.039 54.296 368.007 53.832 367.943 53.48C367.879 53.1227 367.746 52.864 367.543 52.704C367.34 52.5387 367.026 52.456 366.599 52.456C366.268 52.456 365.956 52.528 365.663 52.672C365.375 52.816 365.116 52.9973 364.887 53.216C364.663 53.4293 364.476 53.6453 364.327 53.864V60H362.983ZM379.425 50.68L379.841 51.944C379.483 52.056 379.102 52.1253 378.697 52.152C378.291 52.1787 377.851 52.192 377.377 52.192C377.862 52.416 378.227 52.7067 378.473 53.064C378.718 53.416 378.841 53.832 378.841 54.312C378.841 54.8667 378.715 55.36 378.465 55.792C378.214 56.224 377.851 56.5627 377.377 56.808C376.907 57.0533 376.339 57.176 375.673 57.176C375.39 57.176 375.153 57.1627 374.961 57.136C374.774 57.1093 374.593 57.0693 374.417 57.016C374.289 57.1013 374.182 57.2187 374.097 57.368C374.017 57.5173 373.977 57.672 373.977 57.832C373.977 58.0347 374.057 58.2027 374.217 58.336C374.377 58.4693 374.673 58.536 375.105 58.536H376.625C377.19 58.536 377.697 58.6373 378.145 58.84C378.598 59.0427 378.953 59.3147 379.209 59.656C379.47 59.9973 379.601 60.3867 379.601 60.824C379.601 61.6507 379.249 62.2853 378.545 62.728C377.846 63.1707 376.857 63.392 375.577 63.392C374.681 63.392 373.974 63.2987 373.457 63.112C372.939 62.9307 372.569 62.6507 372.345 62.272C372.126 61.8987 372.017 61.4267 372.017 60.856H373.233C373.233 61.1813 373.297 61.4507 373.425 61.664C373.553 61.8773 373.785 62.0347 374.121 62.136C374.457 62.2427 374.939 62.296 375.569 62.296C376.187 62.296 376.691 62.2427 377.081 62.136C377.475 62.0347 377.766 61.88 377.953 61.672C378.145 61.4693 378.241 61.216 378.241 60.912C378.241 60.512 378.059 60.2107 377.697 60.008C377.334 59.8053 376.881 59.704 376.337 59.704H374.833C374.107 59.704 373.571 59.544 373.225 59.224C372.883 58.904 372.713 58.536 372.713 58.12C372.713 57.848 372.79 57.584 372.945 57.328C373.105 57.072 373.337 56.8453 373.641 56.648C373.155 56.392 372.798 56.0747 372.569 55.696C372.339 55.3173 372.225 54.8587 372.225 54.32C372.225 53.7493 372.366 53.2453 372.649 52.808C372.931 52.3653 373.326 52.0187 373.833 51.768C374.339 51.5173 374.923 51.392 375.585 51.392C376.294 51.3867 376.87 51.3573 377.313 51.304C377.755 51.2453 378.134 51.1627 378.449 51.056C378.769 50.9493 379.094 50.824 379.425 50.68ZM375.585 52.376C374.907 52.376 374.406 52.56 374.081 52.928C373.761 53.2907 373.601 53.7547 373.601 54.32C373.601 54.8907 373.766 55.36 374.097 55.728C374.427 56.096 374.934 56.28 375.617 56.28C376.214 56.28 376.667 56.1067 376.977 55.76C377.291 55.4133 377.449 54.9307 377.449 54.312C377.449 53.6773 377.291 53.1973 376.977 52.872C376.667 52.5413 376.203 52.376 375.585 52.376ZM172.222 87.648L171.134 87.168L177.982 73.048L179.054 73.576L172.222 87.648ZM180.222 87.648L179.134 87.168L185.982 73.048L187.054 73.576L180.222 87.648ZM204.865 74.016C205.319 74.016 205.729 74.056 206.097 74.136C206.465 74.216 206.815 74.328 207.145 74.472L206.713 75.472C206.441 75.3547 206.153 75.2667 205.849 75.208C205.545 75.1493 205.231 75.12 204.905 75.12C204.319 75.12 203.876 75.2347 203.577 75.464C203.284 75.6933 203.137 76.0453 203.137 76.52V78.232H205.993L205.849 79.288H203.137V86H201.793V79.288H199.785V78.232H201.793V76.552C201.793 76.0293 201.927 75.5787 202.193 75.2C202.465 74.8213 202.833 74.5307 203.297 74.328C203.761 74.12 204.284 74.016 204.865 74.016ZM212.691 77.4C213.486 77.4 214.15 77.5813 214.683 77.944C215.222 78.3013 215.624 78.808 215.891 79.464C216.163 80.12 216.299 80.8933 216.299 81.784C216.299 82.6427 216.16 83.4027 215.883 84.064C215.606 84.7253 215.198 85.2453 214.659 85.624C214.126 85.9973 213.464 86.184 212.675 86.184C211.886 86.184 211.222 86.0027 210.683 85.64C210.144 85.2773 209.736 84.768 209.459 84.112C209.187 83.4507 209.051 82.68 209.051 81.8C209.051 80.9307 209.19 80.1653 209.467 79.504C209.744 78.8427 210.152 78.328 210.691 77.96C211.235 77.5867 211.902 77.4 212.691 77.4ZM212.691 78.496C211.966 78.496 211.416 78.7653 211.043 79.304C210.675 79.8373 210.491 80.6693 210.491 81.8C210.491 82.9093 210.672 83.7333 211.035 84.272C211.403 84.8107 211.95 85.08 212.675 85.08C213.4 85.08 213.944 84.8107 214.307 84.272C214.675 83.7333 214.859 82.904 214.859 81.784C214.859 80.664 214.678 79.8373 214.315 79.304C213.952 78.7653 213.411 78.496 212.691 78.496ZM222.285 77.4C223.079 77.4 223.743 77.5813 224.277 77.944C224.815 78.3013 225.218 78.808 225.485 79.464C225.757 80.12 225.893 80.8933 225.893 81.784C225.893 82.6427 225.754 83.4027 225.477 84.064C225.199 84.7253 224.791 85.2453 224.253 85.624C223.719 85.9973 223.058 86.184 222.269 86.184C221.479 86.184 220.815 86.0027 220.277 85.64C219.738 85.2773 219.33 84.768 219.053 84.112C218.781 83.4507 218.645 82.68 218.645 81.8C218.645 80.9307 218.783 80.1653 219.061 79.504C219.338 78.8427 219.746 78.328 220.285 77.96C220.829 77.5867 221.495 77.4 222.285 77.4ZM222.285 78.496C221.559 78.496 221.01 78.7653 220.637 79.304C220.269 79.8373 220.085 80.6693 220.085 81.8C220.085 82.9093 220.266 83.7333 220.629 84.272C220.997 84.8107 221.543 85.08 222.269 85.08C222.994 85.08 223.538 84.8107 223.901 84.272C224.269 83.7333 224.453 82.904 224.453 81.784C224.453 80.664 224.271 79.8373 223.909 79.304C223.546 78.7653 223.005 78.496 222.285 78.496ZM242.528 77.576V84.936H244.904V86H238.584V84.936H241.184V78.64H238.664V77.576H242.528ZM241.456 73.632C241.755 73.632 241.992 73.7227 242.168 73.904C242.35 74.0853 242.44 74.3067 242.44 74.568C242.44 74.84 242.35 75.0693 242.168 75.256C241.992 75.4373 241.755 75.528 241.456 75.528C241.174 75.528 240.942 75.4373 240.76 75.256C240.579 75.0693 240.488 74.84 240.488 74.568C240.488 74.3067 240.579 74.0853 240.76 73.904C240.942 73.7227 241.174 73.632 241.456 73.632ZM250.722 85.072C251.367 85.072 251.877 84.952 252.25 84.712C252.629 84.4667 252.818 84.1413 252.818 83.736C252.818 83.48 252.77 83.2587 252.674 83.072C252.583 82.8853 252.394 82.7173 252.106 82.568C251.818 82.4187 251.375 82.2693 250.778 82.12C250.197 81.976 249.69 81.8107 249.258 81.624C248.831 81.432 248.498 81.184 248.258 80.88C248.023 80.576 247.906 80.1813 247.906 79.696C247.906 79.2213 248.039 78.8133 248.306 78.472C248.578 78.1253 248.954 77.8613 249.434 77.68C249.914 77.4933 250.471 77.4 251.106 77.4C251.783 77.4 252.373 77.4907 252.874 77.672C253.381 77.848 253.81 78.0667 254.162 78.328L253.57 79.24C253.25 79.0213 252.898 78.8427 252.514 78.704C252.13 78.56 251.666 78.488 251.122 78.488C250.461 78.488 249.991 78.592 249.714 78.8C249.437 79.0027 249.298 79.2667 249.298 79.592C249.298 79.8373 249.365 80.0427 249.498 80.208C249.637 80.368 249.869 80.5147 250.194 80.648C250.519 80.776 250.967 80.9173 251.538 81.072C252.087 81.216 252.565 81.3893 252.97 81.592C253.381 81.7947 253.701 82.0613 253.93 82.392C254.159 82.7227 254.274 83.1493 254.274 83.672C254.274 84.2693 254.103 84.7547 253.762 85.128C253.421 85.496 252.978 85.7653 252.434 85.936C251.895 86.1013 251.325 86.184 250.722 86.184C249.959 86.184 249.309 86.0747 248.77 85.856C248.237 85.632 247.789 85.3627 247.426 85.048L248.194 84.16C248.525 84.432 248.903 84.6533 249.33 84.824C249.762 84.9893 250.226 85.072 250.722 85.072ZM267.046 86V77.576H268.19L268.294 78.744C268.635 78.312 269.062 77.9813 269.574 77.752C270.091 77.5173 270.592 77.4 271.078 77.4C271.904 77.4 272.504 77.6187 272.878 78.056C273.256 78.4933 273.446 79.1013 273.446 79.88V86H272.102V80.872C272.102 80.296 272.07 79.832 272.006 79.48C271.942 79.1227 271.808 78.864 271.606 78.704C271.403 78.5387 271.088 78.456 270.662 78.456C270.331 78.456 270.019 78.528 269.726 78.672C269.438 78.816 269.179 78.9973 268.95 79.216C268.726 79.4293 268.539 79.6453 268.39 79.864V86H267.046ZM279.847 77.4C280.642 77.4 281.306 77.5813 281.839 77.944C282.378 78.3013 282.781 78.808 283.047 79.464C283.319 80.12 283.455 80.8933 283.455 81.784C283.455 82.6427 283.317 83.4027 283.039 84.064C282.762 84.7253 282.354 85.2453 281.815 85.624C281.282 85.9973 280.621 86.184 279.831 86.184C279.042 86.184 278.378 86.0027 277.839 85.64C277.301 85.2773 276.893 84.768 276.615 84.112C276.343 83.4507 276.207 82.68 276.207 81.8C276.207 80.9307 276.346 80.1653 276.623 79.504C276.901 78.8427 277.309 78.328 277.847 77.96C278.391 77.5867 279.058 77.4 279.847 77.4ZM279.847 78.496C279.122 78.496 278.573 78.7653 278.199 79.304C277.831 79.8373 277.647 80.6693 277.647 81.8C277.647 82.9093 277.829 83.7333 278.191 84.272C278.559 84.8107 279.106 85.08 279.831 85.08C280.557 85.08 281.101 84.8107 281.463 84.272C281.831 83.7333 282.015 82.904 282.015 81.784C282.015 80.664 281.834 79.8373 281.471 79.304C281.109 78.7653 280.567 78.496 279.847 78.496ZM292.473 86H290.569L289.481 79.816L288.297 86H286.441L284.905 77.576H286.281L287.353 85.168L288.697 78.648H290.289L291.561 85.168L292.633 77.576H293.945L292.473 86ZM311.453 84.16C311.453 84.496 311.509 84.7413 311.621 84.896C311.733 85.0507 311.906 85.1653 312.141 85.24L311.812 86.184C311.45 86.136 311.133 86.0213 310.861 85.84C310.589 85.6533 310.391 85.3733 310.269 85C309.965 85.3893 309.586 85.6853 309.133 85.888C308.679 86.0853 308.178 86.184 307.629 86.184C306.786 86.184 306.122 85.9467 305.637 85.472C305.151 84.9973 304.909 84.368 304.909 83.584C304.909 82.7147 305.247 82.048 305.924 81.584C306.602 81.12 307.581 80.888 308.861 80.888H310.101V80.184C310.101 79.576 309.922 79.1467 309.565 78.896C309.213 78.64 308.722 78.512 308.093 78.512C307.815 78.512 307.49 78.5467 307.117 78.616C306.743 78.68 306.338 78.7893 305.901 78.944L305.549 77.928C306.066 77.736 306.551 77.6 307.005 77.52C307.458 77.44 307.89 77.4 308.301 77.4C309.351 77.4 310.138 77.6453 310.661 78.136C311.189 78.6213 311.453 79.2827 311.453 80.12V84.16ZM307.973 85.16C308.389 85.16 308.786 85.056 309.165 84.848C309.543 84.6347 309.855 84.3413 310.101 83.968V81.8H308.885C307.957 81.8 307.301 81.96 306.917 82.28C306.538 82.6 306.349 83.0293 306.349 83.568C306.349 84.0907 306.482 84.488 306.749 84.76C307.021 85.0267 307.429 85.16 307.973 85.16ZM325.952 78.672C326.261 78.2667 326.616 77.9547 327.016 77.736C327.421 77.512 327.867 77.4 328.352 77.4C329.104 77.4 329.712 77.5813 330.176 77.944C330.64 78.3067 330.979 78.8187 331.192 79.48C331.405 80.136 331.512 80.904 331.512 81.784C331.512 82.632 331.384 83.3893 331.128 84.056C330.872 84.7173 330.496 85.2373 330 85.616C329.509 85.9947 328.901 86.184 328.176 86.184C327.2 86.184 326.435 85.832 325.88 85.128L325.784 86H324.608V74.184L325.952 74.016V78.672ZM327.856 85.096C328.56 85.096 329.101 84.824 329.48 84.28C329.859 83.736 330.048 82.9013 330.048 81.776C330.048 81.04 329.973 80.4293 329.824 79.944C329.675 79.4533 329.451 79.088 329.152 78.848C328.859 78.6027 328.496 78.48 328.064 78.48C327.595 78.48 327.181 78.6213 326.824 78.904C326.472 79.1813 326.181 79.4907 325.952 79.832V84.008C326.171 84.3387 326.445 84.6027 326.776 84.8C327.112 84.9973 327.472 85.096 327.856 85.096ZM337.41 77.4C338.204 77.4 338.868 77.5813 339.402 77.944C339.94 78.3013 340.343 78.808 340.61 79.464C340.882 80.12 341.018 80.8933 341.018 81.784C341.018 82.6427 340.879 83.4027 340.602 84.064C340.324 84.7253 339.916 85.2453 339.378 85.624C338.844 85.9973 338.183 86.184 337.394 86.184C336.604 86.184 335.94 86.0027 335.402 85.64C334.863 85.2773 334.455 84.768 334.178 84.112C333.906 83.4507 333.77 82.68 333.77 81.8C333.77 80.9307 333.908 80.1653 334.186 79.504C334.463 78.8427 334.871 78.328 335.41 77.96C335.954 77.5867 336.62 77.4 337.41 77.4ZM337.41 78.496C336.684 78.496 336.135 78.7653 335.762 79.304C335.394 79.8373 335.21 80.6693 335.21 81.8C335.21 82.9093 335.391 83.7333 335.754 84.272C336.122 84.8107 336.668 85.08 337.394 85.08C338.119 85.08 338.663 84.8107 339.026 84.272C339.394 83.7333 339.578 82.904 339.578 81.784C339.578 80.664 339.396 79.8373 339.034 79.304C338.671 78.7653 338.13 78.496 337.41 78.496ZM347.004 77.4C347.798 77.4 348.462 77.5813 348.996 77.944C349.534 78.3013 349.937 78.808 350.204 79.464C350.476 80.12 350.612 80.8933 350.612 81.784C350.612 82.6427 350.473 83.4027 350.196 84.064C349.918 84.7253 349.51 85.2453 348.972 85.624C348.438 85.9973 347.777 86.184 346.988 86.184C346.198 86.184 345.534 86.0027 344.996 85.64C344.457 85.2773 344.049 84.768 343.772 84.112C343.5 83.4507 343.363 82.68 343.363 81.8C343.363 80.9307 343.502 80.1653 343.78 79.504C344.057 78.8427 344.465 78.328 345.004 77.96C345.548 77.5867 346.214 77.4 347.004 77.4ZM347.004 78.496C346.278 78.496 345.729 78.7653 345.356 79.304C344.988 79.8373 344.804 80.6693 344.804 81.8C344.804 82.9093 344.985 83.7333 345.348 84.272C345.716 84.8107 346.262 85.08 346.988 85.08C347.713 85.08 348.257 84.8107 348.62 84.272C348.988 83.7333 349.172 82.904 349.172 81.784C349.172 80.664 348.99 79.8373 348.628 79.304C348.265 78.7653 347.724 78.496 347.004 78.496ZM356.669 74.184V83.92C356.669 84.336 356.797 84.632 357.053 84.808C357.315 84.9787 357.651 85.064 358.061 85.064C358.317 85.064 358.56 85.0373 358.789 84.984C359.019 84.9307 359.248 84.8587 359.477 84.768L359.837 85.752C359.608 85.864 359.323 85.9627 358.981 86.048C358.645 86.1387 358.264 86.184 357.837 86.184C357.091 86.184 356.485 85.9787 356.021 85.568C355.557 85.152 355.325 84.5787 355.325 83.848V75.248H352.741V74.184H356.669ZM364.039 82.264C364.066 82.9147 364.191 83.448 364.415 83.864C364.639 84.2747 364.935 84.5787 365.303 84.776C365.671 84.968 366.071 85.064 366.503 85.064C366.935 85.064 367.324 85 367.671 84.872C368.023 84.744 368.383 84.5547 368.751 84.304L369.383 85.192C368.988 85.5013 368.538 85.744 368.031 85.92C367.53 86.096 367.015 86.184 366.487 86.184C365.671 86.184 364.975 86 364.399 85.632C363.823 85.264 363.383 84.752 363.079 84.096C362.78 83.4347 362.631 82.6693 362.631 81.8C362.631 80.9467 362.783 80.1893 363.087 79.528C363.391 78.8667 363.818 78.3467 364.367 77.968C364.916 77.5893 365.564 77.4 366.311 77.4C367.02 77.4 367.631 77.568 368.143 77.904C368.655 78.2347 369.047 78.7093 369.319 79.328C369.596 79.9413 369.735 80.6747 369.735 81.528C369.735 81.672 369.732 81.808 369.727 81.936C369.722 82.0587 369.714 82.168 369.703 82.264H364.039ZM366.327 78.504C365.703 78.504 365.18 78.7253 364.759 79.168C364.343 79.6107 364.106 80.296 364.047 81.224H368.439C368.423 80.3227 368.226 79.6453 367.847 79.192C367.468 78.7333 366.962 78.504 366.327 78.504ZM378.609 84.16C378.609 84.496 378.665 84.7413 378.777 84.896C378.889 85.0507 379.062 85.1653 379.297 85.24L378.969 86.184C378.606 86.136 378.289 86.0213 378.017 85.84C377.745 85.6533 377.547 85.3733 377.425 85C377.121 85.3893 376.742 85.6853 376.289 85.888C375.835 86.0853 375.334 86.184 374.785 86.184C373.942 86.184 373.278 85.9467 372.793 85.472C372.307 84.9973 372.065 84.368 372.065 83.584C372.065 82.7147 372.403 82.048 373.081 81.584C373.758 81.12 374.737 80.888 376.017 80.888H377.257V80.184C377.257 79.576 377.078 79.1467 376.721 78.896C376.369 78.64 375.878 78.512 375.249 78.512C374.971 78.512 374.646 78.5467 374.273 78.616C373.899 78.68 373.494 78.7893 373.057 78.944L372.705 77.928C373.222 77.736 373.707 77.6 374.161 77.52C374.614 77.44 375.046 77.4 375.457 77.4C376.507 77.4 377.294 77.6453 377.817 78.136C378.345 78.6213 378.609 79.2827 378.609 80.12V84.16ZM375.129 85.16C375.545 85.16 375.942 85.056 376.321 84.848C376.699 84.6347 377.011 84.3413 377.257 83.968V81.8H376.041C375.113 81.8 374.457 81.96 374.073 82.28C373.694 82.6 373.505 83.0293 373.505 83.568C373.505 84.0907 373.638 84.488 373.905 84.76C374.177 85.0267 374.585 85.16 375.129 85.16ZM382.171 86V77.576H383.315L383.419 78.744C383.76 78.312 384.187 77.9813 384.699 77.752C385.216 77.5173 385.717 77.4 386.203 77.4C387.029 77.4 387.629 77.6187 388.003 78.056C388.381 78.4933 388.571 79.1013 388.571 79.88V86H387.227V80.872C387.227 80.296 387.195 79.832 387.131 79.48C387.067 79.1227 386.933 78.864 386.731 78.704C386.528 78.5387 386.213 78.456 385.787 78.456C385.456 78.456 385.144 78.528 384.851 78.672C384.563 78.816 384.304 78.9973 384.075 79.216C383.851 79.4293 383.664 79.6453 383.515 79.864V86H382.171Z" fill="#4F6173"/>
</svg>
